<svg width="18" height="18" viewBox="0 0 18 18" fill="none" xmlns="http://www.w3.org/2000/svg">
<path d="M0 2.25C0 1.00898 1.00898 0 2.25 0H12.375C13.616 0 14.625 1.00898 14.625 2.25V4.5C14.625 5.74102 13.616 6.75 12.375 6.75H2.25C1.00898 6.75 0 5.74102 0 4.5V2.25ZM5.625 12.375C5.625 11.7527 6.12773 11.25 6.75 11.25V10.6875C6.75 9.13359 8.00859 7.875 9.5625 7.875H14.625C15.2473 7.875 15.75 7.37227 15.75 6.75V5.625V2.44336C17.0613 2.90742 18 4.15547 18 5.625V6.75C18 8.61328 16.4883 10.125 14.625 10.125H9.5625C9.25313 10.125 9 10.3781 9 10.6875V11.25C9.62227 11.25 10.125 11.7527 10.125 12.375V16.875C10.125 17.4973 9.62227 18 9 18H6.75C6.12773 18 5.625 17.4973 5.625 16.875V12.375Z" fill="white"/>
</svg>
